<svg id="Group_126589" data-name="Group 126589" xmlns="http://www.w3.org/2000/svg" xmlns:xlink="http://www.w3.org/1999/xlink" width="154" height="30.108" viewBox="0 0 154 30.108">
  <defs>
    <clipPath id="clip-path">
      <rect id="Rectangle_70032" data-name="Rectangle 70032" width="154" height="30.109" fill="none"/>
    </clipPath>
  </defs>
  <g id="Group_126552" data-name="Group 126552" clip-path="url(#clip-path)">
    <path id="Path_184497" data-name="Path 184497" d="M597.364,13.25a4,4,0,1,1-4-4,3.995,3.995,0,0,1,4,4" transform="translate(-443.364 -6.962)" fill="#ed1c24"/>
    <path id="Path_184498" data-name="Path 184498" d="M428.136,31.887a11.1,11.1,0,1,0,11.1,11.1,11.117,11.117,0,0,0-11.1-11.1m6.079,11.1a6.081,6.081,0,1,1-6.079-6.085,6.089,6.089,0,0,1,6.079,6.085" transform="translate(-313.716 -23.987)" fill="#ed1c24"/>
    <path id="Path_184499" data-name="Path 184499" d="M517.777,31.887a11.1,11.1,0,1,0,11.1,11.1,11.116,11.116,0,0,0-11.1-11.1m6.079,11.1a6.081,6.081,0,1,1-6.079-6.085,6.089,6.089,0,0,1,6.079,6.085" transform="translate(-381.15 -23.987)" fill="#ed1c24"/>
    <path id="Path_184500" data-name="Path 184500" d="M100.737,31.887a11.1,11.1,0,1,0,11.095,11.1,11.118,11.118,0,0,0-11.095-11.1m6.078,11.1a6.081,6.081,0,1,1-6.078-6.085,6.088,6.088,0,0,1,6.078,6.085" transform="translate(-67.424 -23.987)" fill="#ed1c24"/>
    <path id="Path_184501" data-name="Path 184501" d="M11.108,31.887a11.1,11.1,0,1,0,11.1,11.1,11.117,11.117,0,0,0-11.1-11.1m6.082,11.1A6.085,6.085,0,1,1,11.108,36.9a6.09,6.09,0,0,1,6.082,6.085" transform="translate(0 -23.987)" fill="#ed1c24"/>
    <path id="Path_184502" data-name="Path 184502" d="M348.2,0h-2.161A1.436,1.436,0,0,0,344.6,1.433l-.016,8.285-.285-.176A11.095,11.095,0,1,0,349.607,19l.023-17.567A1.436,1.436,0,0,0,348.2,0M344.6,19a6.1,6.1,0,0,1-6.089,6.087,6.089,6.089,0,0,1-6.077-6.179,6.2,6.2,0,0,1,5.988-5.991h.091A6.1,6.1,0,0,1,344.6,19" transform="translate(-246.292)" fill="#ed1c24"/>
    <path id="Path_184503" data-name="Path 184503" d="M194.869,38.717l.077.088h0a11.337,11.337,0,0,1,2.74-4.032,10.378,10.378,0,0,0-8.442-3.061,9.59,9.59,0,0,0-5.08,2.129V33.26a1.245,1.245,0,0,0-1.244-1.244H180.5a1.272,1.272,0,0,0-1.27,1.271l0,19.336a1.245,1.245,0,0,0,1.243,1.244H182.9a1.272,1.272,0,0,0,1.271-1.269l.1-10.055a5.789,5.789,0,0,1,5.344-5.9,6.1,6.1,0,0,1,5.254,2.078" transform="translate(-134.825 -23.823)" fill="#ed1c24"/>
    <path id="Path_184504" data-name="Path 184504" d="M259.276,49.381l-2.954-1.629a1,1,0,0,0-1.138.077l-.528.338a6.778,6.778,0,0,1-3.264.913l-.273.006a8.964,8.964,0,0,1-1.629-.148,6.049,6.049,0,0,1-4.215-3.132L245,45.148l16.524.007a11.28,11.28,0,0,1-.165-3.238,10.825,10.825,0,0,1,.175-1.152,11.128,11.128,0,0,0-11.324-8.892,11.221,11.221,0,0,0-10.665,11A11.062,11.062,0,0,0,249.41,54l.609.047c.332.023.662.033,1.01.033.131,0,.253,0,.385-.01a11.556,11.556,0,0,0,7.16-2.414l.031-.019a.422.422,0,0,0,.086-.057l.783-.706a.882.882,0,0,0,.288-.769.952.952,0,0,0-.487-.722m-8.625-12.492a6,6,0,0,1,5.589,3.735l-11.19-.013a6.038,6.038,0,0,1,5.6-3.722" transform="translate(-180.203 -23.97)" fill="#ed1c24"/>
  </g>
</svg>
